<svg width="39" height="25" viewBox="0 0 39 25" fill="none" xmlns="http://www.w3.org/2000/svg">
<path fill-rule="evenodd" clip-rule="evenodd" d="M26.5292 24.4118C33.2703 24.4118 38.7351 18.9471 38.7351 12.2059C38.7351 5.46478 33.2703 -3.13494e-07 26.5292 -2.01956e-07C19.788 -9.0419e-08 14.3232 5.46478 14.3232 12.2059C14.3232 18.9471 19.788 24.4118 26.5292 24.4118ZM26.529 16.7423C29.0343 16.7423 31.0654 14.7113 31.0654 12.2059C31.0654 9.70053 29.0343 7.66951 26.529 7.66951C24.0236 7.66951 21.9925 9.70053 21.9925 12.2059C21.9925 14.7113 24.0236 16.7423 26.529 16.7423Z" fill="black"/>
<path d="M18.5417 12.752L20.8692 16.199L20.9313 16.291L20.8204 16.291L18.9275 16.291L18.8947 16.291L18.8774 16.2631L16.9793 13.2038L16.1585 13.2038L16.1585 16.232L16.1585 16.291L16.0995 16.291L14.3982 16.291L14.3392 16.291L14.3392 16.232L14.3392 12.2097L14.3392 10.1985L14.3392 8.18738L14.3392 8.12843L14.3982 8.12843L14.7362 8.12843L15.0742 8.12843L15.57 8.12843L16.7417 8.12843C17.8432 8.12843 18.6664 8.32795 19.1999 8.73766C19.7437 9.14948 20.0118 9.77364 20.0118 10.5985C20.0118 10.9741 19.9389 11.3066 19.7913 11.5941M18.5417 12.752L19.7912 11.5944C19.7912 11.5943 19.7913 11.5942 19.7913 11.5941M18.5417 12.752C18.7856 12.6343 19.0132 12.4874 19.2244 12.3113L19.2246 12.3112C19.4635 12.1108 19.6525 11.8717 19.7913 11.5941M18.5417 12.752L19.7913 11.5941M17.8216 11.4304L17.8216 11.4304L17.8209 11.4309C17.5966 11.6061 17.2115 11.7001 16.6516 11.7001L16.1585 11.7001L16.1585 9.64343L16.6178 9.64343C17.1704 9.64343 17.5618 9.72604 17.8026 9.88185L17.8026 9.88188L17.8043 9.8829C18.0449 10.0272 18.17 10.2752 18.17 10.6436C18.17 10.997 18.0519 11.2558 17.8216 11.4304Z" fill="white" stroke="white" stroke-width="0.117888"/>
<path d="M5.55 15.7557L0.24 15.7557L0.24 14.7757L3.66 9.86569L0.33 9.86569L0.33 8.61569L5.46 8.61569L5.46 9.59569L2.04 14.5057L5.55 14.5057L5.55 15.7557ZM11.801 15.7557L7.69102 15.7557L7.69102 8.61569L11.801 8.61569L11.801 9.85569L9.20102 9.85569L9.20102 11.4257L11.621 11.4257L11.621 12.6657L9.20102 12.6657L9.20102 14.5057L11.801 14.5057L11.801 15.7557Z" fill="black"/>
<path d="M5.55 15.7557L5.55 16.1057L5.9 16.1057L5.9 15.7557L5.55 15.7557ZM0.24 15.7557L-0.11 15.7557L-0.11 16.1057L0.24 16.1057L0.24 15.7557ZM0.24 14.7757L-0.0471976 14.5756L-0.11 14.6658L-0.11 14.7757L0.24 14.7757ZM3.66 9.86569L3.9472 10.0657L4.33032 9.51569L3.66 9.51569L3.66 9.86569ZM0.33 9.86569L-0.02 9.86569L-0.02 10.2157L0.33 10.2157L0.33 9.86569ZM0.33 8.61569L0.33 8.26569L-0.02 8.26569L-0.02 8.61569L0.33 8.61569ZM5.46 8.61569L5.81 8.61569L5.81 8.26569L5.46 8.26569L5.46 8.61569ZM5.46 9.59569L5.7472 9.79573L5.81 9.70557L5.81 9.59569L5.46 9.59569ZM2.04 14.5057L1.7528 14.3056L1.36968 14.8557L2.04 14.8557L2.04 14.5057ZM5.55 14.5057L5.9 14.5057L5.9 14.1557L5.55 14.1557L5.55 14.5057ZM5.55 15.4057L0.24 15.4057L0.24 16.1057L5.55 16.1057L5.55 15.4057ZM0.59 15.7557L0.59 14.7757L-0.11 14.7757L-0.11 15.7557L0.59 15.7557ZM0.527198 14.9757L3.9472 10.0657L3.3728 9.66565L-0.0471976 14.5756L0.527198 14.9757ZM3.66 9.51569L0.33 9.51569L0.33 10.2157L3.66 10.2157L3.66 9.51569ZM0.68 9.86569L0.68 8.61569L-0.02 8.61569L-0.02 9.86569L0.68 9.86569ZM0.33 8.96569L5.46 8.96569L5.46 8.26569L0.33 8.26569L0.33 8.96569ZM5.11 8.61569L5.11 9.59569L5.81 9.59569L5.81 8.61569L5.11 8.61569ZM5.1728 9.39565L1.7528 14.3056L2.3272 14.7057L5.7472 9.79573L5.1728 9.39565ZM2.04 14.8557L5.55 14.8557L5.55 14.1557L2.04 14.1557L2.04 14.8557ZM5.2 14.5057L5.2 15.7557L5.9 15.7557L5.9 14.5057L5.2 14.5057ZM11.801 15.7557L11.801 16.1057L12.151 16.1057L12.151 15.7557L11.801 15.7557ZM7.69102 15.7557L7.34102 15.7557L7.34102 16.1057L7.69102 16.1057L7.69102 15.7557ZM7.69102 8.61569L7.69102 8.26569L7.34102 8.26569L7.34102 8.61569L7.69102 8.61569ZM11.801 8.61569L12.151 8.61569L12.151 8.26569L11.801 8.26569L11.801 8.61569ZM11.801 9.85569L11.801 10.2057L12.151 10.2057L12.151 9.85569L11.801 9.85569ZM9.20102 9.85569L9.20102 9.50569L8.85102 9.50569L8.85102 9.85569L9.20102 9.85569ZM9.20102 11.4257L8.85102 11.4257L8.85102 11.7757L9.20102 11.7757L9.20102 11.4257ZM11.621 11.4257L11.971 11.4257L11.971 11.0757L11.621 11.0757L11.621 11.4257ZM11.621 12.6657L11.621 13.0157L11.971 13.0157L11.971 12.6657L11.621 12.6657ZM9.20102 12.6657L9.20102 12.3157L8.85102 12.3157L8.85102 12.6657L9.20102 12.6657ZM9.20102 14.5057L8.85102 14.5057L8.85102 14.8557L9.20102 14.8557L9.20102 14.5057ZM11.801 14.5057L12.151 14.5057L12.151 14.1557L11.801 14.1557L11.801 14.5057ZM11.801 15.4057L7.69102 15.4057L7.69102 16.1057L11.801 16.1057L11.801 15.4057ZM8.04102 15.7557L8.04102 8.61569L7.34102 8.61569L7.34102 15.7557L8.04102 15.7557ZM7.69102 8.96569L11.801 8.96569L11.801 8.26569L7.69102 8.26569L7.69102 8.96569ZM11.451 8.61569L11.451 9.85569L12.151 9.85569L12.151 8.61569L11.451 8.61569ZM11.801 9.50569L9.20102 9.50569L9.20102 10.2057L11.801 10.2057L11.801 9.50569ZM8.85102 9.85569L8.85102 11.4257L9.55102 11.4257L9.55102 9.85569L8.85102 9.85569ZM9.20102 11.7757L11.621 11.7757L11.621 11.0757L9.20102 11.0757L9.20102 11.7757ZM11.271 11.4257L11.271 12.6657L11.971 12.6657L11.971 11.4257L11.271 11.4257ZM11.621 12.3157L9.20102 12.3157L9.20102 13.0157L11.621 13.0157L11.621 12.3157ZM8.85102 12.6657L8.85102 14.5057L9.55102 14.5057L9.55102 12.6657L8.85102 12.6657ZM9.20102 14.8557L11.801 14.8557L11.801 14.1557L9.20102 14.1557L9.20102 14.8557ZM11.451 14.5057L11.451 15.7557L12.151 15.7557L12.151 14.5057L11.451 14.5057Z" fill="black"/>
<circle cx="26.4915" cy="12.2435" r="2.21614" fill="black"/>
</svg>
