<svg width="104" height="48" viewBox="0 0 104 48" fill="none" xmlns="http://www.w3.org/2000/svg">
<path fill-rule="evenodd" clip-rule="evenodd" d="M90.6526 36.16C97.8323 36.16 103.653 30.3397 103.653 23.16C103.653 15.9803 97.8323 10.16 90.6526 10.16C83.4729 10.16 77.6526 15.9803 77.6526 23.16C77.6526 30.3397 83.4729 36.16 90.6526 36.16ZM90.6354 28.3928C93.5349 28.3928 95.8854 26.0423 95.8854 23.1428C95.8854 20.2433 93.5349 17.8928 90.6354 17.8928C87.7359 17.8928 85.3854 20.2433 85.3854 23.1428C85.3854 26.0423 87.7359 28.3928 90.6354 28.3928Z" fill="black"/>
<path d="M38.2526 35H21.2606V31.864L32.2046 16.152H21.5486V12.152H37.9646V15.288L27.0206 31H38.2526V35ZM55.0559 35H41.9039V12.152H55.0559V16.12H46.7359V21.144H54.4799V25.112H46.7359V31H55.0559V35ZM66.4661 12.152C68.5354 12.152 70.2421 12.408 71.5861 12.92C72.9301 13.4107 73.9328 14.168 74.5941 15.192C75.2554 16.1947 75.5861 17.464 75.5861 19C75.5861 20.0453 75.3834 20.9627 74.9781 21.752C74.5941 22.52 74.0714 23.1813 73.4101 23.736C72.7701 24.2693 72.0768 24.7067 71.3301 25.048L78.0501 35H72.6741L67.2341 26.232H64.6421V35H59.8101V12.152H66.4661ZM66.1141 16.12H64.6421V22.296H66.2101C67.2768 22.296 68.1408 22.1787 68.8021 21.944C69.4634 21.7093 69.9434 21.3573 70.2421 20.888C70.5408 20.3973 70.6901 19.8107 70.6901 19.128C70.6901 18.4027 70.5194 17.8267 70.1781 17.4C69.8581 16.952 69.3568 16.632 68.6741 16.44C68.0128 16.2267 67.1594 16.12 66.1141 16.12Z" fill="black"/>
<path d="M38.2526 35V36H39.2526V35H38.2526ZM21.2606 35H20.2606V36H21.2606V35ZM21.2606 31.864L20.4401 31.2924L20.2606 31.5501V31.864H21.2606ZM32.2046 16.152L33.0252 16.7236L34.1198 15.152H32.2046V16.152ZM21.5486 16.152H20.5486V17.152H21.5486V16.152ZM21.5486 12.152V11.152H20.5486V12.152H21.5486ZM37.9646 12.152H38.9646V11.152H37.9646V12.152ZM37.9646 15.288L38.7852 15.8596L38.9646 15.6019V15.288H37.9646ZM27.0206 31L26.2001 30.4284L25.1054 32H27.0206V31ZM38.2526 31H39.2526V30H38.2526V31ZM38.2526 34H21.2606V36H38.2526V34ZM22.2606 35V31.864H20.2606V35H22.2606ZM22.0812 32.4356L33.0252 16.7236L31.3841 15.5804L20.4401 31.2924L22.0812 32.4356ZM32.2046 15.152H21.5486V17.152H32.2046V15.152ZM22.5486 16.152V12.152H20.5486V16.152H22.5486ZM21.5486 13.152H37.9646V11.152H21.5486V13.152ZM36.9646 12.152V15.288H38.9646V12.152H36.9646ZM37.1441 14.7164L26.2001 30.4284L27.8412 31.5716L38.7852 15.8596L37.1441 14.7164ZM27.0206 32H38.2526V30H27.0206V32ZM37.2526 31V35H39.2526V31H37.2526ZM55.0559 35V36H56.0559V35H55.0559ZM41.9039 35H40.9039V36H41.9039V35ZM41.9039 12.152V11.152H40.9039V12.152H41.9039ZM55.0559 12.152H56.0559V11.152H55.0559V12.152ZM55.0559 16.12V17.12H56.0559V16.12H55.0559ZM46.7359 16.12V15.12H45.7359V16.12H46.7359ZM46.7359 21.144H45.7359V22.144H46.7359V21.144ZM54.4799 21.144H55.4799V20.144H54.4799V21.144ZM54.4799 25.112V26.112H55.4799V25.112H54.4799ZM46.7359 25.112V24.112H45.7359V25.112H46.7359ZM46.7359 31H45.7359V32H46.7359V31ZM55.0559 31H56.0559V30H55.0559V31ZM55.0559 34H41.9039V36H55.0559V34ZM42.9039 35V12.152H40.9039V35H42.9039ZM41.9039 13.152H55.0559V11.152H41.9039V13.152ZM54.0559 12.152V16.12H56.0559V12.152H54.0559ZM55.0559 15.12H46.7359V17.12H55.0559V15.12ZM45.7359 16.12V21.144H47.7359V16.12H45.7359ZM46.7359 22.144H54.4799V20.144H46.7359V22.144ZM53.4799 21.144V25.112H55.4799V21.144H53.4799ZM54.4799 24.112H46.7359V26.112H54.4799V24.112ZM45.7359 25.112V31H47.7359V25.112H45.7359ZM46.7359 32H55.0559V30H46.7359V32ZM54.0559 31V35H56.0559V31H54.0559ZM71.5861 12.92L71.2301 13.8546L71.2432 13.8594L71.5861 12.92ZM74.5941 15.192L73.754 15.7345L73.7593 15.7426L74.5941 15.192ZM74.9781 21.752L74.0885 21.2952L74.0837 21.3048L74.9781 21.752ZM73.4101 23.736L74.0503 24.5042L74.0527 24.5022L73.4101 23.736ZM71.3301 25.048L70.9144 24.1385L69.8408 24.6293L70.5014 25.6076L71.3301 25.048ZM78.0501 35V36H79.932L78.8789 34.4404L78.0501 35ZM72.6741 35L71.8244 35.5272L72.1177 36H72.6741V35ZM67.2341 26.232L68.0839 25.7048L67.7905 25.232H67.2341V26.232ZM64.6421 26.232V25.232H63.6421V26.232H64.6421ZM64.6421 35V36H65.6421V35H64.6421ZM59.8101 35H58.8101V36H59.8101V35ZM59.8101 12.152V11.152H58.8101V12.152H59.8101ZM64.6421 16.12V15.12H63.6421V16.12H64.6421ZM64.6421 22.296H63.6421V23.296H64.6421V22.296ZM68.8021 21.944L69.1365 22.8864L69.1365 22.8864L68.8021 21.944ZM70.2421 20.888L71.0858 21.4249L71.0911 21.4165L71.0963 21.4079L70.2421 20.888ZM70.1781 17.4L69.3644 17.9812L69.3802 18.0034L69.3972 18.0247L70.1781 17.4ZM68.6741 16.44L68.3671 17.3917L68.3851 17.3975L68.4034 17.4026L68.6741 16.44ZM66.4661 13.152C68.4627 13.152 70.038 13.4003 71.2301 13.8545L71.9421 11.9855C70.4463 11.4157 68.6082 11.152 66.4661 11.152V13.152ZM71.2432 13.8594C72.4195 14.2888 73.2305 14.9238 73.7541 15.7345L75.4342 14.6495C74.6351 13.4122 73.4407 12.5325 71.9291 11.9806L71.2432 13.8594ZM73.7593 15.7426C74.2865 16.5418 74.5861 17.6055 74.5861 19H76.5861C76.5861 17.3225 76.2244 15.8475 75.4289 14.6414L73.7593 15.7426ZM74.5861 19C74.5861 19.9147 74.4094 20.6703 74.0885 21.2952L75.8677 22.2088C76.3575 21.255 76.5861 20.176 76.5861 19H74.5861ZM74.0837 21.3048C73.7612 21.9497 73.3245 22.5026 72.7675 22.9698L74.0527 24.5022C74.8184 23.86 75.427 23.0903 75.8725 22.1992L74.0837 21.3048ZM72.7699 22.9678C72.1971 23.4451 71.5791 23.8347 70.9144 24.1385L71.7459 25.9575C72.5745 25.5787 73.3431 25.0935 74.0503 24.5042L72.7699 22.9678ZM70.5014 25.6076L77.2214 35.5596L78.8789 34.4404L72.1589 24.4884L70.5014 25.6076ZM78.0501 34H72.6741V36H78.0501V34ZM73.5239 34.4728L68.0839 25.7048L66.3844 26.7592L71.8244 35.5272L73.5239 34.4728ZM67.2341 25.232H64.6421V27.232H67.2341V25.232ZM63.6421 26.232V35H65.6421V26.232H63.6421ZM64.6421 34H59.8101V36H64.6421V34ZM60.8101 35V12.152H58.8101V35H60.8101ZM59.8101 13.152H66.4661V11.152H59.8101V13.152ZM66.1141 15.12H64.6421V17.12H66.1141V15.12ZM63.6421 16.12V22.296H65.6421V16.12H63.6421ZM64.6421 23.296H66.2101V21.296H64.6421V23.296ZM66.2101 23.296C67.3377 23.296 68.3272 23.1736 69.1365 22.8864L68.4677 21.0016C67.9543 21.1837 67.2158 21.296 66.2101 21.296V23.296ZM69.1365 22.8864C69.9522 22.597 70.639 22.127 71.0858 21.4249L69.3985 20.3511C69.2479 20.5877 68.9747 20.8217 68.4677 21.0016L69.1365 22.8864ZM71.0963 21.4079C71.507 20.7333 71.6901 19.9592 71.6901 19.128H69.6901C69.6901 19.6621 69.5746 20.0614 69.3879 20.3681L71.0963 21.4079ZM71.6901 19.128C71.6901 18.2501 71.4826 17.4299 70.959 16.7753L69.3972 18.0247C69.5563 18.2235 69.6901 18.5552 69.6901 19.128H71.6901ZM70.9918 16.8188C70.5055 16.1379 69.7827 15.713 68.9449 15.4773L68.4034 17.4026C68.9309 17.551 69.2107 17.7661 69.3644 17.9812L70.9918 16.8188ZM68.9811 15.4883C68.184 15.2312 67.2166 15.12 66.1141 15.12V17.12C67.1023 17.12 67.8415 17.2222 68.3671 17.3917L68.9811 15.4883Z" fill="black"/>
<path d="M5.81672 35.8386L6.59596 35.8937L6.90475 35.1761L17.3713 10.8541L17.9836 9.43133L16.4386 9.32203L14.1936 9.16321L13.4151 9.10814L13.1059 9.82474L2.61413 34.145L2 35.5686L3.54653 35.678L5.81672 35.8386Z" fill="#FF4400" stroke="#FF4400" stroke-width="2.2"/>
</svg>
