<svg width="93" height="26" viewBox="0 0 93 26" fill="none" xmlns="http://www.w3.org/2000/svg">
<path fill-rule="evenodd" clip-rule="evenodd" d="M80 26C87.1797 26 93 20.1797 93 13C93 5.8203 87.1797 0 80 0C72.8203 0 67 5.8203 67 13C67 20.1797 72.8203 26 80 26ZM80 19C83.3137 19 86 16.3137 86 13C86 9.68629 83.3137 7 80 7C76.6863 7 74 9.68629 74 13C74 16.3137 76.6863 19 80 19Z" fill="black"/>
<path d="M18.7601 25.5H19.2601V25V21V20.5H18.7601H8.48567L18.8823 5.57377L18.9721 5.44496V5.28799V2.15199V1.65199H18.4721H2.05607H1.55607V2.15199V6.15199V6.65199H2.05607H11.7545L1.35778 21.5782L1.26807 21.707V21.864V25V25.5H1.76807H18.7601ZM38.7633 25.5H39.2633V25V21V20.5H38.7633H30.9433V15.612H38.1873H38.6873V15.112V11.144V10.644H38.1873H30.9433V6.61999H38.7633H39.2633V6.11999V2.15199V1.65199H38.7633H25.6113H25.1113V2.15199V25V25.5H25.6113H38.7633ZM65.3719 24.7202L58.9721 15.2424C59.5614 14.9285 60.1167 14.5542 60.6377 14.1201L60.6389 14.1191C61.3517 13.5212 61.9169 12.8065 62.3316 11.978C62.7783 11.107 62.9936 10.1096 62.9936 8.99999C62.9936 7.3943 62.6478 6.02292 61.9204 4.91892C61.1908 3.79009 60.0938 2.97255 58.6683 2.4515C57.2489 1.91143 55.4777 1.65199 53.3736 1.65199H46.7176H46.2176V2.15199V25V25.5H46.7176H51.5496H52.0496V25V16.732H53.8634L59.1567 25.2636L59.3034 25.5H59.5816H64.9576H65.8985L65.3719 24.7202ZM56.6787 7.69061L56.6866 7.7017L56.6951 7.71234C56.9453 8.02507 57.0976 8.47892 57.0976 9.12799C57.0976 9.73424 56.9661 10.2259 56.725 10.6238C56.5001 10.9748 56.1242 11.2663 55.5424 11.4728C54.955 11.6812 54.1538 11.796 53.1176 11.796H52.0496V6.61999H53.0216C54.0383 6.61999 54.8346 6.72441 55.4281 6.91585L55.4371 6.91875L55.4462 6.92132C56.0513 7.0915 56.4419 7.35907 56.6787 7.69061Z" fill="black" stroke="black"/>
</svg>
