<svg width="115" height="31" viewBox="0 0 115 31" fill="none" xmlns="http://www.w3.org/2000/svg">
<mask id="path-1-outside-1_530_23" maskUnits="userSpaceOnUse" x="21.7683" y="2" width="94" height="28" fill="black">
<rect fill="white" x="21.7683" y="2" width="94" height="28"/>
<path fill-rule="evenodd" clip-rule="evenodd" d="M101 29C108.18 29 114 23.1797 114 16C114 8.8203 108.18 3 101 3C93.8206 3 88.0002 8.8203 88.0002 16C88.0002 23.1797 93.8206 29 101 29ZM101 22C104.314 22 107 19.3137 107 16C107 12.6863 104.314 10 101 10C97.6865 10 95.0002 12.6863 95.0002 16C95.0002 19.3137 97.6865 22 101 22Z"/>
<path d="M39.7603 28H22.7683V24.864L33.7123 9.15199H23.0563V5.15199H39.4723V8.28799L28.5283 24H39.7603V28Z"/>
<path d="M59.7636 28H46.6116V5.15199H59.7636V9.11999H51.4436V14.144H59.1876V18.112H51.4436V24H59.7636V28Z"/>
<path d="M74.3738 5.15199C76.4431 5.15199 78.1498 5.40799 79.4938 5.91999C80.8378 6.41066 81.8405 7.16799 82.5018 8.19199C83.1631 9.19466 83.4938 10.464 83.4938 12C83.4938 13.0453 83.2911 13.9627 82.8858 14.752C82.5018 15.52 81.9791 16.1813 81.3178 16.736C80.6778 17.2693 79.9845 17.7067 79.2378 18.048L85.9578 28H80.5818L75.1418 19.232H72.5498V28H67.7178V5.15199H74.3738ZM74.0218 9.11999H72.5498V15.296H74.1178C75.1845 15.296 76.0485 15.1787 76.7098 14.944C77.3711 14.7093 77.8511 14.3573 78.1498 13.888C78.4485 13.3973 78.5978 12.8107 78.5978 12.128C78.5978 11.4027 78.4271 10.8267 78.0858 10.4C77.7658 9.95199 77.2645 9.63199 76.5818 9.43999C75.9205 9.22666 75.0671 9.11999 74.0218 9.11999Z"/>
</mask>
<path fill-rule="evenodd" clip-rule="evenodd" d="M101 29C108.18 29 114 23.1797 114 16C114 8.8203 108.18 3 101 3C93.8206 3 88.0002 8.8203 88.0002 16C88.0002 23.1797 93.8206 29 101 29ZM101 22C104.314 22 107 19.3137 107 16C107 12.6863 104.314 10 101 10C97.6865 10 95.0002 12.6863 95.0002 16C95.0002 19.3137 97.6865 22 101 22Z" fill="black"/>
<path d="M39.7603 28H22.7683V24.864L33.7123 9.15199H23.0563V5.15199H39.4723V8.28799L28.5283 24H39.7603V28Z" fill="black"/>
<path d="M59.7636 28H46.6116V5.15199H59.7636V9.11999H51.4436V14.144H59.1876V18.112H51.4436V24H59.7636V28Z" fill="black"/>
<path d="M74.3738 5.15199C76.4431 5.15199 78.1498 5.40799 79.4938 5.91999C80.8378 6.41066 81.8405 7.16799 82.5018 8.19199C83.1631 9.19466 83.4938 10.464 83.4938 12C83.4938 13.0453 83.2911 13.9627 82.8858 14.752C82.5018 15.52 81.9791 16.1813 81.3178 16.736C80.6778 17.2693 79.9845 17.7067 79.2378 18.048L85.9578 28H80.5818L75.1418 19.232H72.5498V28H67.7178V5.15199H74.3738ZM74.0218 9.11999H72.5498V15.296H74.1178C75.1845 15.296 76.0485 15.1787 76.7098 14.944C77.3711 14.7093 77.8511 14.3573 78.1498 13.888C78.4485 13.3973 78.5978 12.8107 78.5978 12.128C78.5978 11.4027 78.4271 10.8267 78.0858 10.4C77.7658 9.95199 77.2645 9.63199 76.5818 9.43999C75.9205 9.22666 75.0671 9.11999 74.0218 9.11999Z" fill="black"/>
<path d="M39.7603 28V29H40.7603V28H39.7603ZM22.7683 28H21.7683V29H22.7683V28ZM22.7683 24.864L21.9477 24.2924L21.7683 24.5501V24.864H22.7683ZM33.7123 9.15199L34.5329 9.72355L35.6275 8.15199H33.7123V9.15199ZM23.0563 9.15199H22.0563V10.152H23.0563V9.15199ZM23.0563 5.15199V4.15199H22.0563V5.15199H23.0563ZM39.4723 5.15199H40.4723V4.15199H39.4723V5.15199ZM39.4723 8.28799L40.2929 8.85955L40.4723 8.60194V8.28799H39.4723ZM28.5283 24L27.7077 23.4284L26.6131 25H28.5283V24ZM39.7603 24H40.7603V23H39.7603V24ZM59.7636 28V29H60.7636V28H59.7636ZM46.6116 28H45.6116V29H46.6116V28ZM46.6116 5.15199V4.15199H45.6116V5.15199H46.6116ZM59.7636 5.15199H60.7636V4.15199H59.7636V5.15199ZM59.7636 9.11999V10.12H60.7636V9.11999H59.7636ZM51.4436 9.11999V8.11999H50.4436V9.11999H51.4436ZM51.4436 14.144H50.4436V15.144H51.4436V14.144ZM59.1876 14.144H60.1876V13.144H59.1876V14.144ZM59.1876 18.112V19.112H60.1876V18.112H59.1876ZM51.4436 18.112V17.112H50.4436V18.112H51.4436ZM51.4436 24H50.4436V25H51.4436V24ZM59.7636 24H60.7636V23H59.7636V24ZM79.4938 5.91999L79.1378 6.85457L79.1509 6.85935L79.4938 5.91999ZM82.5018 8.19199L81.6617 8.73455L81.667 8.74259L82.5018 8.19199ZM82.8858 14.752L81.9962 14.2952L81.9914 14.3048L82.8858 14.752ZM81.3178 16.736L81.958 17.5042L81.9604 17.5022L81.3178 16.736ZM79.2378 18.048L78.8221 17.1385L77.7485 17.6293L78.4091 18.6076L79.2378 18.048ZM85.9578 28V29H87.8397L86.7866 27.4404L85.9578 28ZM80.5818 28L79.7321 28.5272L80.0254 29H80.5818V28ZM75.1418 19.232L75.9915 18.7048L75.6982 18.232H75.1418V19.232ZM72.5498 19.232V18.232H71.5498V19.232H72.5498ZM72.5498 28V29H73.5498V28H72.5498ZM67.7178 28H66.7178V29H67.7178V28ZM67.7178 5.15199V4.15199H66.7178V5.15199H67.7178ZM72.5498 9.11999V8.11999H71.5498V9.11999H72.5498ZM72.5498 15.296H71.5498V16.296H72.5498V15.296ZM78.1498 13.888L78.9935 14.4249L78.9988 14.4165L79.004 14.4079L78.1498 13.888ZM78.0858 10.4L77.2721 10.9812L77.2879 11.0034L77.3049 11.0247L78.0858 10.4ZM76.5818 9.43999L76.2748 10.3917L76.2928 10.3975L76.3111 10.4026L76.5818 9.43999ZM101 30C108.732 30 115 23.732 115 16H113C113 22.6274 107.628 28 101 28V30ZM115 16C115 8.26801 108.732 2 101 2V4C107.628 4 113 9.37258 113 16H115ZM101 2C93.2683 2 87.0002 8.26801 87.0002 16H89.0002C89.0002 9.37258 94.3728 4 101 4V2ZM87.0002 16C87.0002 23.732 93.2683 30 101 30V28C94.3728 28 89.0002 22.6274 89.0002 16H87.0002ZM101 23C104.866 23 108 19.866 108 16H106C106 18.7614 103.762 21 101 21V23ZM108 16C108 12.134 104.866 9 101 9V11C103.762 11 106 13.2386 106 16H108ZM101 9C97.1342 9 94.0002 12.134 94.0002 16H96.0002C96.0002 13.2386 98.2388 11 101 11V9ZM94.0002 16C94.0002 19.866 97.1342 23 101 23V21C98.2388 21 96.0002 18.7614 96.0002 16H94.0002ZM39.7603 27H22.7683V29H39.7603V27ZM23.7683 28V24.864H21.7683V28H23.7683ZM23.5889 25.4355L34.5329 9.72355L32.8917 8.58044L21.9477 24.2924L23.5889 25.4355ZM33.7123 8.15199H23.0563V10.152H33.7123V8.15199ZM24.0563 9.15199V5.15199H22.0563V9.15199H24.0563ZM23.0563 6.15199H39.4723V4.15199H23.0563V6.15199ZM38.4723 5.15199V8.28799H40.4723V5.15199H38.4723ZM38.6517 7.71644L27.7077 23.4284L29.3489 24.5715L40.2929 8.85955L38.6517 7.71644ZM28.5283 25H39.7603V23H28.5283V25ZM38.7603 24V28H40.7603V24H38.7603ZM59.7636 27H46.6116V29H59.7636V27ZM47.6116 28V5.15199H45.6116V28H47.6116ZM46.6116 6.15199H59.7636V4.15199H46.6116V6.15199ZM58.7636 5.15199V9.11999H60.7636V5.15199H58.7636ZM59.7636 8.11999H51.4436V10.12H59.7636V8.11999ZM50.4436 9.11999V14.144H52.4436V9.11999H50.4436ZM51.4436 15.144H59.1876V13.144H51.4436V15.144ZM58.1876 14.144V18.112H60.1876V14.144H58.1876ZM59.1876 17.112H51.4436V19.112H59.1876V17.112ZM50.4436 18.112V24H52.4436V18.112H50.4436ZM51.4436 25H59.7636V23H51.4436V25ZM58.7636 24V28H60.7636V24H58.7636ZM74.3738 6.15199C76.3704 6.15199 77.9457 6.40033 79.1378 6.85448L79.8498 4.9855C78.354 4.41566 76.5159 4.15199 74.3738 4.15199V6.15199ZM79.1509 6.85935C80.3272 7.28881 81.1382 7.92377 81.6618 8.73452L83.3419 7.64947C82.5428 6.41222 81.3484 5.53251 79.8368 4.98063L79.1509 6.85935ZM81.667 8.74259C82.1942 9.54182 82.4938 10.6055 82.4938 12H84.4938C84.4938 10.3224 84.1321 8.8475 83.3366 7.6414L81.667 8.74259ZM82.4938 12C82.4938 12.9147 82.3171 13.6703 81.9962 14.2952L83.7754 15.2088C84.2652 14.255 84.4938 13.176 84.4938 12H82.4938ZM81.9914 14.3048C81.6689 14.9497 81.2322 15.5026 80.6752 15.9698L81.9604 17.5022C82.7261 16.86 83.3347 16.0903 83.7802 15.1992L81.9914 14.3048ZM80.6776 15.9678C80.1048 16.4451 79.4868 16.8346 78.8221 17.1385L79.6536 18.9575C80.4822 18.5787 81.2508 18.0935 81.958 17.5042L80.6776 15.9678ZM78.4091 18.6076L85.1291 28.5596L86.7866 27.4404L80.0666 17.4884L78.4091 18.6076ZM85.9578 27H80.5818V29H85.9578V27ZM81.4315 27.4728L75.9915 18.7048L74.2921 19.7592L79.7321 28.5272L81.4315 27.4728ZM75.1418 18.232H72.5498V20.232H75.1418V18.232ZM71.5498 19.232V28H73.5498V19.232H71.5498ZM72.5498 27H67.7178V29H72.5498V27ZM68.7178 28V5.15199H66.7178V28H68.7178ZM67.7178 6.15199H74.3738V4.15199H67.7178V6.15199ZM74.0218 8.11999H72.5498V10.12H74.0218V8.11999ZM71.5498 9.11999V15.296H73.5498V9.11999H71.5498ZM72.5498 16.296H74.1178V14.296H72.5498V16.296ZM74.1178 16.296C75.2454 16.296 76.2349 16.1736 77.0442 15.8864L76.3754 14.0016C75.862 14.1837 75.1235 14.296 74.1178 14.296V16.296ZM77.0442 15.8864C77.8599 15.597 78.5467 15.127 78.9935 14.4249L77.3062 13.3511C77.1556 13.5877 76.8824 13.8217 76.3754 14.0016L77.0442 15.8864ZM79.004 14.4079C79.4147 13.7333 79.5978 12.9592 79.5978 12.128H77.5978C77.5978 12.6621 77.4823 13.0614 77.2956 13.368L79.004 14.4079ZM79.5978 12.128C79.5978 11.2501 79.3903 10.4298 78.8667 9.7753L77.3049 11.0247C77.464 11.2235 77.5978 11.5552 77.5978 12.128H79.5978ZM78.8995 9.81876C78.4132 9.13785 77.6904 8.71298 76.8526 8.47734L76.3111 10.4026C76.8386 10.551 77.1184 10.7661 77.2721 10.9812L78.8995 9.81876ZM76.8888 8.48828C76.0917 8.23116 75.1243 8.11999 74.0218 8.11999V10.12C75.01 10.12 75.7492 10.2222 76.2748 10.3917L76.8888 8.48828Z" fill="black" mask="url(#path-1-outside-1_530_23)"/>
<path d="M6.32411 28.8386L7.10335 28.8937L7.41214 28.1761L17.8787 3.8541L18.491 2.43133L16.946 2.32203L14.701 2.16321L13.9225 2.10814L13.6133 2.82474L3.12152 27.145L2.50739 28.5686L4.05392 28.678L6.32411 28.8386Z" fill="#FF4400" stroke="#FF4400" stroke-width="2.2"/>
</svg>
