<svg width="441" height="66" viewBox="0 0 441 66" fill="none" xmlns="http://www.w3.org/2000/svg">
<mask id="path-1-outside-1_696_21620" maskUnits="userSpaceOnUse" x="0.823975" y="0.563232" width="440" height="66" fill="black">
<rect fill="white" x="0.823975" y="0.563232" width="440" height="66"/>
<path d="M260.052 60L256.1 47.08H236.34L232.388 60H220L239.152 5.508H253.212L272.44 60H260.052ZM249.412 24.812C249.159 23.9507 248.829 22.8613 248.424 21.544C248.019 20.2267 247.613 18.884 247.208 17.516C246.803 16.148 246.473 14.9573 246.22 13.944C245.967 14.9573 245.612 16.224 245.156 17.744C244.751 19.2133 244.345 20.632 243.94 22C243.585 23.3173 243.307 24.2547 243.104 24.812L239.228 37.428H253.364L249.412 24.812Z"/>
<path d="M302.265 60L289.193 17.44H288.889C288.939 18.4533 289.015 19.9733 289.117 22C289.218 24.0267 289.319 26.2053 289.421 28.536C289.522 30.816 289.573 32.8933 289.573 34.768V60H279.313V5.736H294.969L307.813 47.232H308.041L321.645 5.736H337.301V60H326.585V34.312C326.585 32.5893 326.61 30.6133 326.661 28.384C326.762 26.1547 326.838 24.052 326.889 22.076C326.99 20.0493 327.066 18.5293 327.117 17.516H326.813L312.829 60H302.265Z"/>
<path d="M382.244 60H351.008V5.736H382.244V15.16H362.484V27.092H380.876V36.516H362.484V50.5H382.244V60Z"/>
<path d="M409.343 5.736C414.258 5.736 418.311 6.344 421.503 7.56C424.695 8.72533 427.077 10.524 428.647 12.956C430.218 15.3373 431.003 18.352 431.003 22C431.003 24.4827 430.522 26.6613 429.559 28.536C428.647 30.36 427.406 31.9307 425.835 33.248C424.315 34.5147 422.669 35.5533 420.895 36.364L436.855 60H424.087L411.167 39.176H405.011V60H393.535V5.736H409.343ZM408.507 15.16H405.011V29.828H408.735C411.269 29.828 413.321 29.5493 414.891 28.992C416.462 28.4347 417.602 27.5987 418.311 26.484C419.021 25.3187 419.375 23.9253 419.375 22.304C419.375 20.5813 418.97 19.2133 418.159 18.2C417.399 17.136 416.209 16.376 414.587 15.92C413.017 15.4133 410.99 15.16 408.507 15.16Z"/>
<path d="M43.18 60H2.82397L2.82397 52.552L28.816 15.236H3.50797V5.736H42.496V13.184L16.504 50.5H43.18V60Z"/>
<path d="M83.0877 60H51.8517V5.736H83.0877V15.16H63.3277V27.092H81.7197V36.516H63.3277V50.5H83.0877V60Z"/>
<path d="M110.187 5.736C115.102 5.736 119.155 6.344 122.347 7.56C125.539 8.72533 127.92 10.524 129.491 12.956C131.062 15.3373 131.847 18.352 131.847 22C131.847 24.4827 131.366 26.6613 130.403 28.536C129.491 30.36 128.25 31.9307 126.679 33.248C125.159 34.5147 123.512 35.5533 121.739 36.364L137.699 60H124.931L112.011 39.176H105.855V60H94.379V5.736H110.187ZM109.351 15.16H105.855V29.828H109.579C112.112 29.828 114.164 29.5493 115.735 28.992C117.306 28.4347 118.446 27.5987 119.155 26.484C119.864 25.3187 120.219 23.9253 120.219 22.304C120.219 20.5813 119.814 19.2133 119.003 18.2C118.243 17.136 117.052 16.376 115.431 15.92C113.86 15.4133 111.834 15.16 109.351 15.16Z"/>
<path fill-rule="evenodd" clip-rule="evenodd" d="M169.341 63.9998C186.306 63.9998 200.059 50.2468 200.059 33.2815C200.059 16.3163 186.306 2.56323 169.341 2.56323C152.376 2.56323 138.623 16.3163 138.623 33.2815C138.623 50.2468 152.376 63.9998 169.341 63.9998ZM169.341 47.4592C177.171 47.4592 183.519 41.1116 183.519 33.2815C183.519 25.4514 177.171 19.1039 169.341 19.1039C161.511 19.1039 155.163 25.4514 155.163 33.2815C155.163 41.1116 161.511 47.4592 169.341 47.4592Z"/>
</mask>
<path d="M260.052 60L256.1 47.08H236.34L232.388 60H220L239.152 5.508H253.212L272.44 60H260.052ZM249.412 24.812C249.159 23.9507 248.829 22.8613 248.424 21.544C248.019 20.2267 247.613 18.884 247.208 17.516C246.803 16.148 246.473 14.9573 246.22 13.944C245.967 14.9573 245.612 16.224 245.156 17.744C244.751 19.2133 244.345 20.632 243.94 22C243.585 23.3173 243.307 24.2547 243.104 24.812L239.228 37.428H253.364L249.412 24.812Z" fill="black"/>
<path d="M302.265 60L289.193 17.44H288.889C288.939 18.4533 289.015 19.9733 289.117 22C289.218 24.0267 289.319 26.2053 289.421 28.536C289.522 30.816 289.573 32.8933 289.573 34.768V60H279.313V5.736H294.969L307.813 47.232H308.041L321.645 5.736H337.301V60H326.585V34.312C326.585 32.5893 326.61 30.6133 326.661 28.384C326.762 26.1547 326.838 24.052 326.889 22.076C326.99 20.0493 327.066 18.5293 327.117 17.516H326.813L312.829 60H302.265Z" fill="black"/>
<path d="M382.244 60H351.008V5.736H382.244V15.16H362.484V27.092H380.876V36.516H362.484V50.5H382.244V60Z" fill="black"/>
<path d="M409.343 5.736C414.258 5.736 418.311 6.344 421.503 7.56C424.695 8.72533 427.077 10.524 428.647 12.956C430.218 15.3373 431.003 18.352 431.003 22C431.003 24.4827 430.522 26.6613 429.559 28.536C428.647 30.36 427.406 31.9307 425.835 33.248C424.315 34.5147 422.669 35.5533 420.895 36.364L436.855 60H424.087L411.167 39.176H405.011V60H393.535V5.736H409.343ZM408.507 15.16H405.011V29.828H408.735C411.269 29.828 413.321 29.5493 414.891 28.992C416.462 28.4347 417.602 27.5987 418.311 26.484C419.021 25.3187 419.375 23.9253 419.375 22.304C419.375 20.5813 418.97 19.2133 418.159 18.2C417.399 17.136 416.209 16.376 414.587 15.92C413.017 15.4133 410.99 15.16 408.507 15.16Z" fill="black"/>
<path d="M43.18 60H2.82397L2.82397 52.552L28.816 15.236H3.50797V5.736H42.496V13.184L16.504 50.5H43.18V60Z" fill="black"/>
<path d="M83.0877 60H51.8517V5.736H83.0877V15.16H63.3277V27.092H81.7197V36.516H63.3277V50.5H83.0877V60Z" fill="black"/>
<path d="M110.187 5.736C115.102 5.736 119.155 6.344 122.347 7.56C125.539 8.72533 127.92 10.524 129.491 12.956C131.062 15.3373 131.847 18.352 131.847 22C131.847 24.4827 131.366 26.6613 130.403 28.536C129.491 30.36 128.25 31.9307 126.679 33.248C125.159 34.5147 123.512 35.5533 121.739 36.364L137.699 60H124.931L112.011 39.176H105.855V60H94.379V5.736H110.187ZM109.351 15.16H105.855V29.828H109.579C112.112 29.828 114.164 29.5493 115.735 28.992C117.306 28.4347 118.446 27.5987 119.155 26.484C119.864 25.3187 120.219 23.9253 120.219 22.304C120.219 20.5813 119.814 19.2133 119.003 18.2C118.243 17.136 117.052 16.376 115.431 15.92C113.86 15.4133 111.834 15.16 109.351 15.16Z" fill="black"/>
<path fill-rule="evenodd" clip-rule="evenodd" d="M169.341 63.9998C186.306 63.9998 200.059 50.2468 200.059 33.2815C200.059 16.3163 186.306 2.56323 169.341 2.56323C152.376 2.56323 138.623 16.3163 138.623 33.2815C138.623 50.2468 152.376 63.9998 169.341 63.9998ZM169.341 47.4592C177.171 47.4592 183.519 41.1116 183.519 33.2815C183.519 25.4514 177.171 19.1039 169.341 19.1039C161.511 19.1039 155.163 25.4514 155.163 33.2815C155.163 41.1116 161.511 47.4592 169.341 47.4592Z" fill="black"/>
<path d="M260.052 60L258.14 60.5848L258.573 61.9993H260.052V60ZM256.1 47.08L258.012 46.4952L257.579 45.0807H256.1V47.08ZM236.34 47.08V45.0807H234.861L234.428 46.4952L236.34 47.08ZM232.388 60V61.9993H233.867L234.3 60.5848L232.388 60ZM220 60L218.114 59.3371L217.178 61.9993H220V60ZM239.152 5.508V3.50873H237.735L237.266 4.84508L239.152 5.508ZM253.212 5.508L255.097 4.84274L254.627 3.50873H253.212V5.508ZM272.44 60V61.9993H275.266L274.325 59.3347L272.44 60ZM249.412 24.812L247.494 25.3761L247.499 25.3929L247.504 25.4096L249.412 24.812ZM248.424 21.544L246.513 22.132L246.513 22.132L248.424 21.544ZM247.208 17.516L245.291 18.084L245.291 18.084L247.208 17.516ZM246.22 13.944L248.16 13.4591L244.28 13.4591L246.22 13.944ZM245.156 17.744L243.241 17.1695L243.235 17.1909L243.229 17.2123L245.156 17.744ZM243.94 22L242.023 21.432L242.016 21.4561L242.009 21.4802L243.94 22ZM243.104 24.812L241.225 24.1288L241.208 24.1764L241.193 24.2249L243.104 24.812ZM239.228 37.428L237.317 36.8409L236.522 39.4273H239.228V37.428ZM253.364 37.428V39.4273H256.085L255.272 36.8304L253.364 37.428ZM302.265 60L300.353 60.587L300.787 61.9993H302.265V60ZM289.193 17.44L291.104 16.853L290.67 15.4407H289.193V17.44ZM288.889 17.44V15.4407H286.787L286.892 17.5398L288.889 17.44ZM289.117 22L287.12 22.0998L287.12 22.0998L289.117 22ZM289.421 28.536L287.423 28.6228L287.423 28.6248L289.421 28.536ZM289.573 34.768H287.573H289.573ZM289.573 60V61.9993H291.572V60H289.573ZM279.313 60H277.313V61.9993H279.313V60ZM279.313 5.736V3.73673H277.313V5.736H279.313ZM294.969 5.736L296.878 5.14485L296.443 3.73673H294.969V5.736ZM307.813 47.232L305.903 47.8231L306.339 49.2313H307.813V47.232ZM308.041 47.232V49.2313H309.489L309.94 47.8548L308.041 47.232ZM321.645 5.736V3.73673H320.196L319.745 5.11318L321.645 5.736ZM337.301 5.736H339.3V3.73673H337.301V5.736ZM337.301 60V61.9993H339.3V60H337.301ZM326.585 60H324.585V61.9993H326.585V60ZM326.585 34.312H324.585H326.585ZM326.661 28.384L324.663 28.2932L324.662 28.3159L324.662 28.3386L326.661 28.384ZM326.889 22.076L324.892 21.9762L324.891 22.0004L324.89 22.0248L326.889 22.076ZM327.117 17.516L329.113 17.6158L329.218 15.5167H327.117V17.516ZM326.813 17.516V15.5167H325.366L324.914 16.8909L326.813 17.516ZM312.829 60V61.9993H314.275L314.728 60.6251L312.829 60ZM382.244 60V61.9993H384.243V60H382.244ZM351.008 60H349.009V61.9993H351.008V60ZM351.008 5.736V3.73673H349.009V5.736H351.008ZM382.244 5.736H384.243V3.73673H382.244V5.736ZM382.244 15.16V17.1593H384.243V15.16H382.244ZM362.484 15.16V13.1607H360.485V15.16H362.484ZM362.484 27.092H360.485V29.0913H362.484V27.092ZM380.876 27.092H382.875V25.0927H380.876V27.092ZM380.876 36.516V38.5153H382.875V36.516H380.876ZM362.484 36.516V34.5167H360.485V36.516H362.484ZM362.484 50.5H360.485V52.4993H362.484V50.5ZM382.244 50.5H384.243V48.5007H382.244V50.5ZM409.343 5.736L409.343 7.73526L409.343 5.736ZM421.503 7.56L420.792 9.42828L420.805 9.43324L420.818 9.43802L421.503 7.56ZM428.647 12.956L426.968 14.0407L426.973 14.0487L426.978 14.0568L428.647 12.956ZM431.003 22L433.003 22L431.003 22ZM429.559 28.536L427.781 27.6227L427.776 27.6323L427.771 27.6419L429.559 28.536ZM425.835 33.248L427.115 34.7839L427.12 34.7798L425.835 33.248ZM420.895 36.364L420.064 34.5457L417.918 35.5269L419.238 37.4828L420.895 36.364ZM436.855 60V61.9993H440.618L438.512 58.8812L436.855 60ZM424.087 60L422.388 61.054L422.975 61.9993H424.087V60ZM411.167 39.176L412.866 38.122L412.28 37.1767H411.167V39.176ZM405.011 39.176V37.1767H403.012V39.176H405.011ZM405.011 60V61.9993H407.011V60H405.011ZM393.535 60H391.536V61.9993H393.535V60ZM393.535 5.736V3.73673H391.536V5.736H393.535ZM408.507 15.16L408.507 17.1593L408.507 15.16ZM405.011 15.16V13.1607H403.012V15.16H405.011ZM405.011 29.828H403.012V31.8273H405.011V29.828ZM408.735 29.828L408.735 31.8273L408.735 29.828ZM414.891 28.992L415.56 30.8762L415.56 30.8762L414.891 28.992ZM418.311 26.484L419.998 27.5574L420.009 27.5405L420.019 27.5235L418.311 26.484ZM419.375 22.304L421.375 22.304L419.375 22.304ZM418.159 18.2L416.532 19.362L416.564 19.4064L416.598 19.4489L418.159 18.2ZM414.587 15.92L413.974 17.8227L414.01 17.8343L414.046 17.8446L414.587 15.92ZM43.18 60V61.9993H45.1792V60H43.18ZM2.82397 60L0.824709 60L0.824709 61.9993H2.82397V60ZM2.82397 52.552L1.18345 51.4093L0.824709 51.9243L0.824709 52.552L2.82397 52.552ZM28.816 15.236L30.4565 16.3787L32.645 13.2367H28.816V15.236ZM3.50797 15.236H1.50871V17.2353H3.50797V15.236ZM3.50797 5.736V3.73673H1.50871V5.736H3.50797ZM42.496 5.736H44.4952V3.73673H42.496V5.736ZM42.496 13.184L44.1365 14.3267L44.4952 13.8117V13.184H42.496ZM16.504 50.5L14.8634 49.3573L12.675 52.4993H16.504V50.5ZM43.18 50.5H45.1792V48.5007H43.18V50.5ZM83.0877 60V61.9993H85.087V60H83.0877ZM51.8517 60H49.8524V61.9993H51.8517V60ZM51.8517 5.736V3.73673H49.8524V5.736H51.8517ZM83.0877 5.736H85.087V3.73673H83.0877V5.736ZM83.0877 15.16V17.1593H85.087V15.16H83.0877ZM63.3277 15.16V13.1607H61.3284V15.16H63.3277ZM63.3277 27.092H61.3284V29.0913H63.3277V27.092ZM81.7197 27.092H83.719V25.0927H81.7197V27.092ZM81.7197 36.516V38.5153H83.719V36.516H81.7197ZM63.3277 36.516V34.5167H61.3284V36.516H63.3277ZM63.3277 50.5H61.3284V52.4993H63.3277V50.5ZM83.0877 50.5H85.087V48.5007H83.0877V50.5ZM110.187 5.736L110.187 7.73526L110.187 5.736ZM122.347 7.56L121.635 9.42828L121.648 9.43324L121.661 9.43802L122.347 7.56ZM129.491 12.956L127.812 14.0407L127.817 14.0487L127.822 14.0568L129.491 12.956ZM131.847 22L129.848 22L131.847 22ZM130.403 28.536L128.625 27.6227L128.62 27.6323L128.615 27.6419L130.403 28.536ZM126.679 33.248L127.959 34.7839L127.964 34.7798L126.679 33.248ZM121.739 36.364L120.908 34.5457L118.761 35.5269L120.082 37.4828L121.739 36.364ZM137.699 60V61.9993H141.461L139.356 58.8812L137.699 60ZM124.931 60L123.232 61.054L123.819 61.9993H124.931V60ZM112.011 39.176L113.71 38.122L113.123 37.1767H112.011V39.176ZM105.855 39.176V37.1767H103.856V39.176H105.855ZM105.855 60V61.9993H107.854V60H105.855ZM94.379 60H92.3798V61.9993H94.379V60ZM94.379 5.736V3.73673H92.3798V5.736H94.379ZM109.351 15.16L109.351 17.1593L109.351 15.16ZM105.855 15.16V13.1607H103.856V15.16H105.855ZM105.855 29.828H103.856V31.8273H105.855V29.828ZM109.579 29.828L109.579 31.8273L109.579 29.828ZM115.735 28.992L116.404 30.8762L116.404 30.8762L115.735 28.992ZM119.155 26.484L120.842 27.5574L120.852 27.5405L120.863 27.5235L119.155 26.484ZM120.219 22.304L122.218 22.304L120.219 22.304ZM119.003 18.2L117.376 19.362L117.408 19.4064L117.442 19.4489L119.003 18.2ZM115.431 15.92L114.817 17.8227L114.853 17.8343L114.89 17.8446L115.431 15.92ZM261.964 59.4152L258.012 46.4952L254.188 47.6648L258.14 60.5848L261.964 59.4152ZM256.1 45.0807H236.34V49.0793H256.1V45.0807ZM234.428 46.4952L230.476 59.4152L234.3 60.5848L238.252 47.6648L234.428 46.4952ZM232.388 58.0007H220V61.9993H232.388V58.0007ZM221.886 60.6629L241.038 6.17092L237.266 4.84508L218.114 59.3371L221.886 60.6629ZM239.152 7.50726H253.212V3.50873H239.152V7.50726ZM251.327 6.17326L270.555 60.6653L274.325 59.3347L255.097 4.84274L251.327 6.17326ZM272.44 58.0007H260.052V61.9993H272.44V58.0007ZM251.33 24.2479C251.073 23.3756 250.741 22.2776 250.335 20.956L246.513 22.132C246.917 23.445 247.244 24.5257 247.494 25.3761L251.33 24.2479ZM250.335 20.956C249.932 19.6456 249.528 18.3096 249.125 16.948L245.291 18.084C245.698 19.4584 246.106 20.8077 246.513 22.132L250.335 20.956ZM249.125 16.948C248.725 15.5984 248.404 14.4366 248.16 13.4591L244.28 14.4289C244.543 15.478 244.88 16.6976 245.291 18.084L249.125 16.948ZM244.28 13.4591C244.037 14.4313 243.692 15.6657 243.241 17.1695L247.071 18.3185C247.532 16.7823 247.896 15.4834 248.16 14.4289L244.28 13.4591ZM243.229 17.2123C242.826 18.6703 242.425 20.0769 242.023 21.432L245.857 22.568C246.266 21.1871 246.675 19.7563 247.083 18.2757L243.229 17.2123ZM242.009 21.4802C241.656 22.7945 241.396 23.6592 241.225 24.1288L244.983 25.4952C245.217 24.8501 245.515 23.8402 245.87 22.5198L242.009 21.4802ZM241.193 24.2249L237.317 36.8409L241.139 38.0151L245.015 25.3991L241.193 24.2249ZM239.228 39.4273H253.364V35.4287H239.228V39.4273ZM255.272 36.8304L251.32 24.2144L247.504 25.4096L251.456 38.0256L255.272 36.8304ZM304.176 59.413L291.104 16.853L287.281 18.027L300.353 60.587L304.176 59.413ZM289.193 15.4407H288.889V19.4393H289.193V15.4407ZM286.892 17.5398C286.943 18.5532 287.019 20.0731 287.12 22.0998L291.113 21.9002C291.012 19.8735 290.936 18.3534 290.885 17.3402L286.892 17.5398ZM287.12 22.0998C287.221 24.1216 287.322 26.2959 287.423 28.6228L291.418 28.4492C291.317 26.1148 291.215 23.9317 291.113 21.9002L287.12 22.0998ZM287.423 28.6248C287.524 30.8813 287.573 32.9285 287.573 34.768L291.572 34.768C291.572 32.8582 291.52 30.7507 291.418 28.4472L287.423 28.6248ZM287.573 34.768V60H291.572V34.768H287.573ZM289.573 58.0007H279.313V61.9993H289.573V58.0007ZM281.312 60V5.736H277.313V60H281.312ZM279.313 7.73526H294.969V3.73673H279.313V7.73526ZM293.059 6.32715L305.903 47.8231L309.722 46.6408L296.878 5.14485L293.059 6.32715ZM307.813 49.2313H308.041V45.2327H307.813V49.2313ZM309.94 47.8548L323.544 6.35882L319.745 5.11318L306.141 46.6092L309.94 47.8548ZM321.645 7.73526H337.301V3.73673H321.645V7.73526ZM335.301 5.736V60H339.3V5.736H335.301ZM337.301 58.0007H326.585V61.9993H337.301V58.0007ZM328.584 60V34.312H324.585V60H328.584ZM328.584 34.312C328.584 32.6081 328.609 30.6478 328.659 28.4294L324.662 28.3386C324.611 30.5789 324.585 32.5705 324.585 34.312L328.584 34.312ZM328.658 28.4748C328.76 26.2339 328.836 24.118 328.887 22.1272L324.89 22.0248C324.84 23.986 324.764 26.0754 324.663 28.2932L328.658 28.4748ZM328.885 22.1758C328.987 20.1492 329.063 18.6292 329.113 17.6158L325.12 17.4162C325.069 18.4295 324.993 19.9495 324.892 21.9762L328.885 22.1758ZM327.117 15.5167H326.813V19.5153H327.117V15.5167ZM324.914 16.8909L310.93 59.3749L314.728 60.6251L328.712 18.1411L324.914 16.8909ZM312.829 58.0007H302.265V61.9993H312.829V58.0007ZM382.244 58.0007H351.008V61.9993H382.244V58.0007ZM353.007 60V5.736H349.009V60H353.007ZM351.008 7.73526H382.244V3.73673H351.008V7.73526ZM380.245 5.736V15.16H384.243V5.736H380.245ZM382.244 13.1607H362.484V17.1593H382.244V13.1607ZM360.485 15.16V27.092H364.483V15.16H360.485ZM362.484 29.0913H380.876V25.0927H362.484V29.0913ZM378.877 27.092V36.516H382.875V27.092H378.877ZM380.876 34.5167H362.484V38.5153H380.876V34.5167ZM360.485 36.516V50.5H364.483V36.516H360.485ZM362.484 52.4993H382.244V48.5007H362.484V52.4993ZM380.245 50.5V60H384.243V50.5H380.245ZM409.343 7.73526C414.112 7.73526 417.903 8.32794 420.792 9.42828L422.215 5.69171C418.719 4.36006 414.403 3.73673 409.343 3.73673L409.343 7.73526ZM420.818 9.43802C423.674 10.481 425.672 12.035 426.968 14.0407L430.327 11.8713C428.481 9.013 425.716 6.96968 422.189 5.68197L420.818 9.43802ZM426.978 14.0568C428.281 16.0314 429.004 18.635 429.004 22L433.003 22C433.003 18.069 432.155 14.6433 430.316 11.8552L426.978 14.0568ZM429.004 22C429.004 24.2214 428.575 26.0769 427.781 27.6227L431.338 29.4493C432.469 27.2458 433.003 24.7439 433.003 22L429.004 22ZM427.771 27.6419C426.982 29.2198 425.913 30.5738 424.551 31.7162L427.12 34.7798C428.899 33.2876 430.312 31.5002 431.347 29.4301L427.771 27.6419ZM424.555 31.7121C423.17 32.8668 421.674 33.8099 420.064 34.5457L421.727 38.1823C423.664 37.2967 425.461 36.1625 427.115 34.7839L424.555 31.7121ZM419.238 37.4828L435.198 61.1188L438.512 58.8812L422.552 35.2452L419.238 37.4828ZM436.855 58.0007H424.087V61.9993H436.855V58.0007ZM425.786 58.946L412.866 38.122L409.468 40.23L422.388 61.054L425.786 58.946ZM411.167 37.1767H405.011V41.1753H411.167V37.1767ZM403.012 39.176V60H407.011V39.176H403.012ZM405.011 58.0007H393.535V61.9993H405.011V58.0007ZM395.535 60V5.736H391.536V60H395.535ZM393.535 7.73526H409.343V3.73673H393.535V7.73526ZM408.507 13.1607H405.011V17.1593H408.507V13.1607ZM403.012 15.16V29.828H407.011V15.16H403.012ZM405.011 31.8273H408.735V27.8287H405.011V31.8273ZM408.735 31.8273C411.39 31.8273 413.693 31.5385 415.56 30.8762L414.223 27.1078C412.948 27.5602 411.147 27.8287 408.735 27.8287L408.735 31.8273ZM415.56 30.8762C417.439 30.2093 418.993 29.1374 419.998 27.5574L416.625 25.4106C416.211 26.0599 415.485 26.66 414.223 27.1078L415.56 30.8762ZM420.019 27.5235C420.952 25.9903 421.375 24.2223 421.375 22.304L417.376 22.304C417.376 23.6284 417.089 24.647 416.604 25.4445L420.019 27.5235ZM421.375 22.304C421.375 20.2764 420.896 18.42 419.72 16.9511L416.598 19.4489C417.044 20.0067 417.376 20.8862 417.376 22.304L421.375 22.304ZM419.786 17.0379C418.694 15.5083 417.06 14.5386 415.129 13.9954L414.046 17.8446C415.357 18.2134 416.105 18.7637 416.532 19.362L419.786 17.0379ZM415.201 14.0173C413.359 13.4231 411.104 13.1607 408.507 13.1607L408.507 17.1593C410.876 17.1593 412.674 17.4036 413.974 17.8227L415.201 14.0173ZM43.18 58.0007H2.82397V61.9993H43.18V58.0007ZM4.82324 60L4.82324 52.552L0.824709 52.552L0.824709 60L4.82324 60ZM4.4645 53.6947L30.4565 16.3787L27.1755 14.0933L1.18345 51.4093L4.4645 53.6947ZM28.816 13.2367H3.50797V17.2353H28.816V13.2367ZM5.50724 15.236V5.736H1.50871V15.236H5.50724ZM3.50797 7.73526H42.496V3.73673H3.50797V7.73526ZM40.4967 5.736V13.184H44.4952V5.736H40.4967ZM40.8554 12.0413L14.8634 49.3573L18.1445 51.6427L44.1365 14.3267L40.8554 12.0413ZM16.504 52.4993H43.18V48.5007H16.504V52.4993ZM41.1807 50.5V60H45.1792V50.5H41.1807ZM83.0877 58.0007H51.8517V61.9993H83.0877V58.0007ZM53.851 60V5.736H49.8524V60H53.851ZM51.8517 7.73526H83.0877V3.73673H51.8517V7.73526ZM81.0884 5.736V15.16H85.087V5.736H81.0884ZM83.0877 13.1607H63.3277V17.1593H83.0877V13.1607ZM61.3284 15.16V27.092H65.327V15.16H61.3284ZM63.3277 29.0913H81.7197V25.0927H63.3277V29.0913ZM79.7204 27.092V36.516H83.719V27.092H79.7204ZM81.7197 34.5167H63.3277V38.5153H81.7197V34.5167ZM61.3284 36.516V50.5H65.327V36.516H61.3284ZM63.3277 52.4993H83.0877V48.5007H63.3277V52.4993ZM81.0884 50.5V60H85.087V50.5H81.0884ZM110.187 7.73526C114.956 7.73526 118.747 8.32794 121.635 9.42828L123.059 5.69171C119.563 4.36006 115.247 3.73673 110.187 3.73673L110.187 7.73526ZM121.661 9.43802C124.518 10.481 126.516 12.035 127.812 14.0407L131.171 11.8713C129.324 9.013 126.56 6.96967 123.033 5.68197L121.661 9.43802ZM127.822 14.0568C129.125 16.0314 129.848 18.635 129.848 22L133.846 22C133.846 18.069 132.999 14.6433 131.16 11.8552L127.822 14.0568ZM129.848 22C129.848 24.2214 129.418 26.0769 128.625 27.6227L132.182 29.4493C133.313 27.2458 133.846 24.7439 133.846 22L129.848 22ZM128.615 27.6419C127.826 29.2198 126.756 30.5738 125.394 31.7162L127.964 34.7798C129.743 33.2876 131.156 31.5002 132.191 29.4301L128.615 27.6419ZM125.399 31.7121C124.013 32.8668 122.517 33.8099 120.908 34.5457L122.57 38.1823C124.507 37.2967 126.305 36.1625 127.959 34.7839L125.399 31.7121ZM120.082 37.4828L136.042 61.1188L139.356 58.8812L123.396 35.2452L120.082 37.4828ZM137.699 58.0007H124.931V61.9993H137.699V58.0007ZM126.63 58.946L113.71 38.122L110.312 40.23L123.232 61.054L126.63 58.946ZM112.011 37.1767H105.855V41.1753H112.011V37.1767ZM103.856 39.176V60H107.854V39.176H103.856ZM105.855 58.0007H94.379V61.9993H105.855V58.0007ZM96.3783 60V5.736H92.3798V60H96.3783ZM94.379 7.73526H110.187V3.73673H94.379V7.73526ZM109.351 13.1607H105.855V17.1593H109.351V13.1607ZM103.856 15.16V29.828H107.854V15.16H103.856ZM105.855 31.8273H109.579V27.8287H105.855V31.8273ZM109.579 31.8273C112.234 31.8273 114.537 31.5385 116.404 30.8762L115.066 27.1078C113.792 27.5602 111.991 27.8287 109.579 27.8287L109.579 31.8273ZM116.404 30.8762C118.283 30.2093 119.836 29.1374 120.842 27.5574L117.468 25.4106C117.055 26.0599 116.329 26.66 115.066 27.1078L116.404 30.8762ZM120.863 27.5235C121.796 25.9903 122.218 24.2223 122.218 22.304L118.22 22.304C118.22 23.6284 117.933 24.647 117.447 25.4445L120.863 27.5235ZM122.218 22.304C122.218 20.2764 121.739 18.42 120.564 16.9511L117.442 19.4489C117.888 20.0067 118.22 20.8863 118.22 22.304L122.218 22.304ZM120.63 17.0379C119.537 15.5083 117.904 14.5386 115.972 13.9954L114.89 17.8446C116.201 18.2133 116.949 18.7637 117.376 19.362L120.63 17.0379ZM116.045 14.0173C114.203 13.4231 111.948 13.1607 109.351 13.1607L109.351 17.1593C111.719 17.1593 113.518 17.4036 114.817 17.8227L116.045 14.0173ZM169.341 65.9991C187.41 65.9991 202.059 51.351 202.059 33.2815H198.06C198.06 49.1426 185.202 62.0006 169.341 62.0006V65.9991ZM202.059 33.2815C202.059 15.2121 187.41 0.563967 169.341 0.563967V4.5625C185.202 4.5625 198.06 17.4204 198.06 33.2815H202.059ZM169.341 0.563967C151.272 0.563967 136.624 15.2121 136.624 33.2815H140.622C140.622 17.4204 153.48 4.5625 169.341 4.5625V0.563967ZM136.624 33.2815C136.624 51.351 151.272 65.9991 169.341 65.9991V62.0006C153.48 62.0006 140.622 49.1426 140.622 33.2815H136.624ZM169.341 49.4585C178.275 49.4585 185.518 42.2158 185.518 33.2815H181.519C181.519 40.0075 176.067 45.4599 169.341 45.4599V49.4585ZM185.518 33.2815C185.518 24.3473 178.275 17.1046 169.341 17.1046V21.1031C176.067 21.1031 181.519 26.5556 181.519 33.2815H185.518ZM169.341 17.1046C160.407 17.1046 153.164 24.3473 153.164 33.2815H157.163C157.163 26.5556 162.615 21.1031 169.341 21.1031V17.1046ZM153.164 33.2815C153.164 42.2158 160.407 49.4585 169.341 49.4585V45.4599C162.615 45.4599 157.163 40.0075 157.163 33.2815H153.164Z" fill="black" mask="url(#path-1-outside-1_696_21620)"/>
</svg>
