<svg width="112" height="29" viewBox="0 0 112 29" fill="none" xmlns="http://www.w3.org/2000/svg">
<path fill-rule="evenodd" clip-rule="evenodd" d="M99 29C106.18 29 112 23.1797 112 16C112 8.8203 106.18 3 99 3C91.8203 3 86 8.8203 86 16C86 23.1797 91.8203 29 99 29ZM99 22C102.314 22 105 19.3137 105 16C105 12.6863 102.314 10 99 10C95.6863 10 93 12.6863 93 16C93 19.3137 95.6863 22 99 22Z" fill="black"/>
<path d="M37.7601 28.5H38.2601V28V24V23.5H37.7601H27.4857L37.8823 8.57377L37.9721 8.44496V8.28799V5.15199V4.65199H37.4721H21.0561H20.5561V5.15199V9.15199V9.65199H21.0561H30.7545L20.3578 24.5782L20.2681 24.707V24.864V28V28.5H20.7681H37.7601ZM57.7633 28.5H58.2633V28V24V23.5H57.7633H49.9433V18.612H57.1873H57.6873V18.112V14.144V13.644H57.1873H49.9433V9.61999H57.7633H58.2633V9.11999V5.15199V4.65199H57.7633H44.6113H44.1113V5.15199V28V28.5H44.6113H57.7633ZM84.3719 27.7202L77.9721 18.2424C78.5614 17.9285 79.1167 17.5542 79.6377 17.1201L79.6389 17.1191C80.3517 16.5212 80.9169 15.8065 81.3316 14.978C81.7783 14.107 81.9936 13.1096 81.9936 12C81.9936 10.3943 81.6478 9.02292 80.9204 7.91892C80.1908 6.79009 79.0938 5.97255 77.6683 5.4515C76.2489 4.91143 74.4777 4.65199 72.3736 4.65199H65.7176H65.2176V5.15199V28V28.5H65.7176H70.5496H71.0496V28V19.732H72.8634L78.1567 28.2636L78.3034 28.5H78.5816H83.9576H84.8985L84.3719 27.7202ZM75.6787 10.6906L75.6866 10.7017L75.6951 10.7123C75.9453 11.0251 76.0976 11.4789 76.0976 12.128C76.0976 12.7342 75.9661 13.2259 75.725 13.6238C75.5001 13.9748 75.1242 14.2663 74.5424 14.4728C73.955 14.6812 73.1538 14.796 72.1176 14.796H71.0496V9.61999H72.0216C73.0383 9.61999 73.8346 9.72441 74.4281 9.91585L74.4371 9.91875L74.4462 9.92132C75.0513 10.0915 75.4419 10.3591 75.6787 10.6906Z" fill="black" stroke="black"/>
<path d="M5.33822 27.6391L5.97578 27.6842L6.22843 27.0971L16.695 2.77505L17.196 1.61096L15.9318 1.52153L13.6869 1.36271L13.0499 1.31765L12.797 1.90397L2.30516 26.2242L1.80269 27.389L3.06803 27.4785L5.33822 27.6391Z" fill="#FF4400" stroke="#FF4400" stroke-width="1.8"/>
</svg>
